M48
METRIC,TZ
T01C.5
T02C1.1
T03C1.3
T04C1.5
T05C2.2
T06C3.2
;LEADER: 12 
;HEADER: 
;CODE  : ASCII 
;FILE  : HF_filter_02v2-1-2.drl for  ... layers TOP and BOTTOM
;T01 Holesize 1. = 0.500000 Tolerance = +0.000000/-0.000000 PLATED MM Quantity = 16
;T02 Holesize 2. = 1.100000 Tolerance = +0.000000/-0.000000 PLATED MM Quantity = 27
;T03 Holesize 3. = 1.300000 Tolerance = +0.000000/-0.000000 PLATED MM Quantity = 21
;T04 Holesize 4. = 1.500000 Tolerance = +0.000000/-0.000000 PLATED MM Quantity = 22
;T05 Holesize 5. = 2.200000 Tolerance = +0.000000/-0.000000 PLATED MM Quantity = 14
;T06 Holesize 6. = 3.200000 Tolerance = +0.000000/-0.000000 PLATED MM Quantity = 8
%
G90
T01
X965000Y105000
X946070Y101130
X928130Y92280
X913170Y79010
X902240Y62260
X896110Y43220
X914310Y34920
X965010Y85000
X895000Y1665000
X910000
X965000Y1610000
X956690Y1596030
X937650Y1602160
X920900Y1613090
X907630Y1628060
X898780Y1645990
T02
X820000Y1555000
X292500Y1470000
X67500
X800450Y1639550
X959550Y1480450
X160010Y350000
Y180000
X770010Y480010
X790010Y430000
X410000Y1560000
X835000Y1515000
X430000Y1605000
X770000Y1560000
X270000Y1305000
X580000Y1595000
X630000
X785000Y1515000
X810000Y1480000
X890000Y1340000
Y1290000
X845000Y1135000
X815000Y1090000
X730000Y1040000
X670000Y1020000
X440000Y1030000
X390000Y1050000
X310000Y1070000
T03
X110000Y660000
Y960000
X175000
Y660000
X240000
Y960000
X370000Y660000
Y960000
X500000Y660000
Y960000
X630000Y660000
Y960000
X760000
Y660000
X695000Y960000
Y660000
X565000Y960000
Y660000
X305000Y960000
Y660000
X490010Y50000
T04
X90000Y287500
X140000
X357500Y1610000
Y1560000
X307500Y1610000
Y1560000
X90000Y237500
X140000
X910000Y272500
X860000
X910000Y222500
X860000
X910000Y322500
X860000
X910000Y372500
X860000
X157500Y1610000
Y1560000
X207500Y1610000
Y1560000
X257500Y1610000
Y1560000
T05
X155000Y1030000
X205000
X155000Y1080000
X205000
X155000Y1130000
X205000
X155000Y1180000
X205000
X155000Y1230000
X205000
X155000Y1280000
X205000
X155000Y1330000
X205000
T06
X50000Y50000
Y1650000
X770000Y110000
X480000Y330000
X580000Y1290000
X950000Y1650000
Y50000
M30
